<svg width="10" height="11" viewBox="0 0 10 11" fill="none" xmlns="http://www.w3.org/2000/svg">
<path d="M4.6875 1.125H5.3125V2.6875H4.6875V1.125ZM6.7775 3.28125L7.87313 2.18563L8.315 2.6275L7.21937 3.72313L6.7775 3.28125ZM7.8125 5.1875H9.375V5.8125H7.8125V5.1875ZM6.7775 7.71875L7.21937 7.27719L8.315 8.37281L7.87313 8.81469L6.7775 7.71875ZM4.6875 8.3125H5.3125V9.875H4.6875V8.3125ZM1.68563 8.3725L2.78125 7.27688L3.22313 7.71875L2.12781 8.81438L1.68563 8.3725ZM0.625 5.1875H2.1875V5.8125H0.625V5.1875ZM1.68594 2.6275L2.12781 2.18563L3.22344 3.28125L2.78125 3.72313L1.68594 2.6275ZM5 4.25C5.24723 4.25 5.4889 4.32331 5.69446 4.46066C5.90002 4.59801 6.06024 4.79324 6.15485 5.02165C6.24946 5.25005 6.27421 5.50139 6.22598 5.74386C6.17775 5.98634 6.0587 6.20907 5.88388 6.38388C5.70907 6.5587 5.48634 6.67775 5.24386 6.72598C5.00139 6.77421 4.75005 6.74946 4.52165 6.65485C4.29324 6.56024 4.09801 6.40002 3.96066 6.19446C3.82331 5.9889 3.75 5.74723 3.75 5.5C3.75041 5.16861 3.88224 4.8509 4.11657 4.61657C4.3509 4.38224 4.66861 4.25041 5 4.25M5 3.625C4.62916 3.625 4.26665 3.73497 3.95831 3.94099C3.64996 4.14702 3.40964 4.43986 3.26773 4.78247C3.12581 5.12508 3.08868 5.50208 3.16103 5.86579C3.23338 6.22951 3.41195 6.5636 3.67417 6.82583C3.9364 7.08805 4.27049 7.26663 4.63421 7.33897C4.99792 7.41132 5.37492 7.37419 5.71753 7.23227C6.06014 7.09036 6.35298 6.85004 6.55901 6.54169C6.76503 6.23335 6.875 5.87084 6.875 5.5C6.875 5.00272 6.67746 4.52581 6.32583 4.17417C5.97419 3.82254 5.49728 3.625 5 3.625Z" fill="#333333"/>
</svg>
