<svg width="10" height="9" viewBox="0 0 10 9" fill="none" xmlns="http://www.w3.org/2000/svg">
<path d="M8.12495 3.25021C7.80285 3.25879 7.49047 3.13941 7.25619 2.91819C7.02192 2.69698 6.88483 2.39196 6.87495 2.0699C6.88077 1.83995 6.95151 1.61635 7.07901 1.4249L7.86557 0.254583C7.89579 0.214345 7.93496 0.181689 7.97997 0.159199C8.02499 0.136708 8.07462 0.125 8.12495 0.125C8.17527 0.125 8.2249 0.136708 8.26992 0.159199C8.31493 0.181689 8.3541 0.214345 8.38432 0.254583L9.16088 1.40958C9.29361 1.60484 9.36788 1.83391 9.37495 2.0699C9.36506 2.39196 9.22797 2.69698 8.9937 2.91819C8.75942 3.13941 8.44704 3.25879 8.12495 3.25021ZM8.12495 0.988646L7.60745 1.75833C7.54277 1.84988 7.50549 1.95795 7.49995 2.0699C7.51808 2.22292 7.59173 2.36397 7.70692 2.46631C7.82212 2.56866 7.97085 2.62519 8.12495 2.62519C8.27904 2.62519 8.42778 2.56866 8.54297 2.46631C8.65816 2.36397 8.73181 2.22292 8.74995 2.0699C8.74294 1.95188 8.70228 1.83834 8.63276 1.74271L8.12495 0.988646ZM7.3437 8.87521H2.6562C2.15278 8.87575 1.66711 8.68921 1.29349 8.35181C0.919869 8.01441 0.684943 7.55022 0.634318 7.04935C0.583694 6.54848 0.720983 6.04667 1.01953 5.64133C1.31809 5.23599 1.7566 4.95604 2.24995 4.85583C2.38311 4.22514 2.72901 3.65939 3.22967 3.25339C3.73034 2.84739 4.35535 2.62582 4.99995 2.62582C5.64454 2.62582 6.26955 2.84739 6.77022 3.25339C7.27089 3.65939 7.61679 4.22514 7.74995 4.85583C8.24329 4.95604 8.6818 5.23599 8.98036 5.64133C9.27891 6.04667 9.4162 6.54848 9.36557 7.04935C9.31495 7.55022 9.08002 8.01441 8.7064 8.35181C8.33278 8.68921 7.84712 8.87575 7.3437 8.87521ZM4.99995 3.25021C4.46641 3.25071 3.95145 3.44619 3.55198 3.79985C3.1525 4.15351 2.89605 4.64098 2.83088 5.17052L2.79963 5.42427L2.54495 5.44427C2.18221 5.47189 1.84433 5.63913 1.60239 5.91079C1.36044 6.18246 1.23331 6.53738 1.24772 6.90088C1.26213 7.26438 1.41697 7.60812 1.67966 7.85978C1.94235 8.11143 2.29241 8.2514 2.6562 8.25021H7.3437C7.70748 8.2514 8.05754 8.11143 8.32023 7.85978C8.58292 7.60812 8.73776 7.26438 8.75217 6.90088C8.76659 6.53738 8.63945 6.18246 8.3975 5.91079C8.15556 5.63913 7.81768 5.47189 7.45495 5.44427L7.20026 5.42427L7.16932 5.17052C7.10402 4.64098 6.84748 4.15355 6.44797 3.7999C6.04846 3.44626 5.5335 3.25077 4.99995 3.25021Z" fill="#333333"/>
</svg>
