<svg width="19" height="25" viewBox="0 0 19 25" fill="none" xmlns="http://www.w3.org/2000/svg">
<g clip-path="url(#clip0_20_9327)">
<path d="M8.21777 24.375C5.66895 21.2402 0 13.6426 0 9.375C0 4.19727 4.19727 0 9.375 0C14.5508 0 18.75 4.19727 18.75 9.375C18.75 13.6426 13.0371 21.2402 10.5322 24.375C9.93164 25.1221 8.81836 25.1221 8.21777 24.375ZM9.375 12.5C11.0986 12.5 12.5 11.0986 12.5 9.375C12.5 7.65137 11.0986 6.25 9.375 6.25C7.65137 6.25 6.25 7.65137 6.25 9.375C6.25 11.0986 7.65137 12.5 9.375 12.5Z" fill="#333333"/>
</g>
<defs>
<clipPath id="clip0_20_9327">
<rect width="18.75" height="25" fill="white"/>
</clipPath>
</defs>
</svg>
