<svg width="10" height="9" viewBox="0 0 10 9" fill="none" xmlns="http://www.w3.org/2000/svg">
<path d="M9.375 0.749806H4.05438C3.8583 0.487526 3.58453 0.293736 3.27199 0.195989C2.95945 0.0982419 2.62405 0.101513 2.31347 0.205338C2.0029 0.309163 1.73296 0.508257 1.54203 0.774311C1.35111 1.04037 1.24892 1.35984 1.25 1.68731V5.15918C0.948542 5.46686 0.744628 5.85669 0.66383 6.27979C0.583031 6.70288 0.628945 7.14042 0.795812 7.53753C0.96268 7.93464 1.24307 8.27365 1.60184 8.51205C1.9606 8.75044 2.38176 8.87761 2.8125 8.87761C3.24325 8.87761 3.66441 8.75044 4.02317 8.51205C4.38193 8.27365 4.66232 7.93464 4.82919 7.53753C4.99606 7.14042 5.04197 6.70288 4.96117 6.27979C4.88037 5.85669 4.67646 5.46686 4.375 5.15918V1.68731C4.375 1.58234 4.36443 1.47765 4.34344 1.37481H9.375V0.749806ZM2.8125 8.24981C2.49617 8.25026 2.18717 8.15456 1.92648 7.97538C1.66578 7.79621 1.4657 7.54203 1.35277 7.24654C1.23983 6.95106 1.21938 6.62823 1.29412 6.32085C1.36885 6.01347 1.53525 5.73607 1.77125 5.52543L1.875 5.43199V1.68731C1.875 1.43867 1.97377 1.20021 2.14959 1.02439C2.3254 0.848578 2.56386 0.749806 2.8125 0.749806C3.06114 0.749806 3.2996 0.848578 3.47541 1.02439C3.65123 1.20021 3.75 1.43867 3.75 1.68731V5.43199L3.85375 5.52543C4.08975 5.73607 4.25615 6.01347 4.33089 6.32085C4.40562 6.62823 4.38517 6.95106 4.27224 7.24654C4.1593 7.54203 3.95922 7.79621 3.69853 7.97538C3.43783 8.15456 3.12883 8.25026 2.8125 8.24981Z" fill="#333333"/>
</svg>
